<?xml version="1.0" encoding="utf-8"?>
<svg version="1.1" xmlns="http://www.w3.org/2000/svg" xmlns:xlink="http://www.w3.org/1999/xlink" x="0px" y="0px" viewBox="0 0 128.3 76.5" style="enable-background:new 0 0 128.3 76.5;" xml:space="preserve">
	<g>
		<path style="fill:#51626f;" d="M71.2,13.8v23.8c0,8.4-2.8,12.1-9.2,12.1c-6.4,0-9.2-3.7-9.2-12.1V13.8h-9.1v24.7
			c0,12.8,6.5,19.8,18.3,19.8c11.8,0,18.3-7,18.3-19.8V13.8H71.2z"/>
		<path style="fill:#51626f;" d="M18.7,12.9C7,12.9,0.5,20,0.5,32.7v24.7h9.1V33.6c0-8.4,2.8-12.1,9.2-12.1s9.2,3.7,9.2,12.1v23.8H37
			V32.7C37,20,30.5,12.9,18.7,12.9z"/>
		<rect x="86.9" style="fill:#51626f;" width="9.1" height="56.3"/>
		<rect x="103" style="fill:#51626f;" width="9.1" height="56.3"/>
		<rect x="119" y="14.4" style="fill:#51626f;" width="9.1" height="42"/>
		<g>
			<rect x="119" style="fill:#3095B4;" width="9.1" height="4.2"/>
			<rect x="119" y="6.2" style="fill:#3095B4;" width="9.1" height="4.1"/>
		</g>
	</g>
	<g>
		<path style="fill:#3095B4;" d="M1.3,64.3v9.3H0v-9.3H1.3z"/>
		<path style="fill:#3095B4;" d="M9.4,63.6v10H8.3l-0.1-1C8,73,7.7,73.2,7.3,73.4s-0.7,0.3-1.2,0.3c-0.8,0-1.5-0.3-2-1
			c-0.5-0.7-0.7-1.6-0.7-2.7c0-0.7,0.1-1.4,0.3-1.9c0.2-0.6,0.5-1,1-1.3c0.4-0.3,0.9-0.5,1.5-0.5c0.7,0,1.4,0.3,1.9,0.9v-3.7
			L9.4,63.6z M7.4,72.5c0.3-0.2,0.5-0.4,0.8-0.8v-3.5c-0.2-0.3-0.5-0.5-0.7-0.7c-0.3-0.2-0.6-0.2-0.9-0.2c-0.5,0-1,0.2-1.3,0.7
			c-0.3,0.5-0.5,1.1-0.5,2c0,0.9,0.1,1.6,0.4,2c0.3,0.4,0.7,0.7,1.2,0.7C6.8,72.8,7.1,72.7,7.4,72.5z"/>
		<path style="fill:#3095B4;" d="M17.3,70.5h-4.5c0.1,0.8,0.3,1.4,0.6,1.7c0.3,0.4,0.8,0.6,1.3,0.6c0.3,0,0.7,0,0.9-0.1
			c0.3-0.1,0.6-0.3,0.9-0.5l0.5,0.7c-0.8,0.6-1.6,0.9-2.5,0.9c-1,0-1.8-0.3-2.3-1c-0.6-0.6-0.8-1.5-0.8-2.7c0-0.7,0.1-1.4,0.4-2
			c0.2-0.6,0.6-1,1-1.3c0.4-0.3,1-0.5,1.6-0.5c0.9,0,1.7,0.3,2.2,0.9c0.5,0.6,0.8,1.5,0.8,2.6C17.3,70,17.3,70.2,17.3,70.5z
			 M16.1,69.5c0-0.7-0.1-1.2-0.4-1.6c-0.3-0.4-0.7-0.6-1.3-0.6c-1,0-1.6,0.7-1.7,2.2L16.1,69.5L16.1,69.5z"/>
		<path style="fill:#3095B4;" d="M24.2,66.9c0.4,0.4,0.5,0.9,0.5,1.6v5.1h-1.2v-4.9c0-0.5-0.1-0.9-0.3-1.1c-0.2-0.2-0.5-0.3-0.8-0.3
			c-0.4,0-0.7,0.1-1,0.3c-0.3,0.2-0.6,0.5-0.8,0.9v5h-1.2v-7.1h1.1l0.1,1.1c0.3-0.4,0.6-0.7,0.9-0.9c0.4-0.2,0.8-0.3,1.2-0.3
			C23.3,66.3,23.8,66.5,24.2,66.9z"/>
		<path style="fill:#3095B4;" d="M30.8,73.3c-0.5,0.3-1,0.5-1.6,0.5c-0.6,0-1.1-0.2-1.4-0.5c-0.3-0.3-0.5-0.8-0.5-1.5v-4.3H26v-1h1.2
			v-1.6l1.2-0.1v1.8h1.7l-0.1,1h-1.5v4.2c0,0.4,0.1,0.6,0.2,0.8s0.3,0.2,0.7,0.2c0.3,0,0.6-0.1,0.9-0.3L30.8,73.3z"/>
		<path style="fill:#3095B4;" d="M33.3,63.3c0.2,0.2,0.2,0.4,0.2,0.6c0,0.2-0.1,0.4-0.2,0.6c-0.2,0.2-0.4,0.2-0.6,0.2
			c-0.3,0-0.5-0.1-0.6-0.2c-0.2-0.2-0.2-0.4-0.2-0.6c0-0.2,0.1-0.4,0.2-0.6s0.4-0.2,0.6-0.2C32.9,63.1,33.1,63.2,33.3,63.3z
			 M33.3,66.5v7.1h-1.2v-7.1H33.3z"/>
		<path style="fill:#3095B4;" d="M39.4,73.3c-0.5,0.3-1,0.5-1.6,0.5c-0.6,0-1.1-0.2-1.4-0.5c-0.3-0.3-0.5-0.8-0.5-1.5v-4.3h-1.2v-1
			h1.2v-1.6l1.2-0.1v1.8h1.7l-0.1,1h-1.5v4.2c0,0.4,0.1,0.6,0.2,0.8s0.3,0.2,0.7,0.2c0.3,0,0.6-0.1,0.9-0.3L39.4,73.3z"/>
		<path style="fill:#3095B4;" d="M43.5,73.6c-0.3,0.8-0.7,1.5-1.2,2c-0.5,0.5-1.2,0.8-2.1,0.9l-0.1-1c0.5-0.1,0.8-0.2,1.1-0.4
			s0.5-0.3,0.7-0.6c0.2-0.2,0.3-0.6,0.5-1h-0.4l-2.4-7.1h1.3l1.9,6.2l1.9-6.2h1.3L43.5,73.6z"/>
		<path style="fill:#3095B4;" d="M59.2,73.6H58l-0.3-4.2c-0.1-1.6-0.2-2.9-0.2-3.8l-2,6.9h-1.2l-2.1-6.9c0,1.1-0.1,2.4-0.2,3.9
			l-0.3,4.1h-1.2l0.8-9.3h1.7l2,6.8l1.9-6.8h1.7L59.2,73.6z"/>
		<path style="fill:#3095B4;" d="M66.3,72.6c0.1,0.1,0.2,0.2,0.4,0.3l-0.3,0.9c-0.4,0-0.7-0.1-0.9-0.3c-0.2-0.2-0.4-0.4-0.5-0.8
			c-0.5,0.7-1.2,1.1-2.1,1.1c-0.7,0-1.3-0.2-1.7-0.6c-0.4-0.4-0.6-0.9-0.6-1.5c0-0.8,0.3-1.3,0.8-1.7c0.5-0.4,1.3-0.6,2.3-0.6h1.1
			v-0.5c0-0.5-0.1-0.9-0.4-1.1c-0.2-0.2-0.6-0.3-1.1-0.3c-0.5,0-1.2,0.1-1.9,0.4l-0.3-0.9c0.9-0.3,1.7-0.5,2.5-0.5
			c0.8,0,1.5,0.2,1.9,0.6c0.4,0.4,0.6,1,0.6,1.7v3.2C66.1,72.2,66.2,72.4,66.3,72.6z M64.9,71.7v-1.6H64c-1.3,0-2,0.5-2,1.5
			c0,0.4,0.1,0.7,0.3,1c0.2,0.2,0.5,0.3,0.9,0.3C63.9,72.8,64.5,72.4,64.9,71.7z"/>
		<path style="fill:#3095B4;" d="M73.5,66.9c0.4,0.4,0.5,0.9,0.5,1.6v5.1h-1.2v-4.9c0-0.5-0.1-0.9-0.3-1.1c-0.2-0.2-0.5-0.3-0.8-0.3
			c-0.4,0-0.7,0.1-1,0.3c-0.3,0.2-0.6,0.5-0.8,0.9v5h-1.2v-7.1h1.1l0.1,1.1c0.3-0.4,0.6-0.7,0.9-0.9c0.4-0.2,0.8-0.3,1.2-0.3
			C72.7,66.3,73.2,66.5,73.5,66.9z"/>
		<path style="fill:#3095B4;" d="M81.5,72.6c0.1,0.1,0.2,0.2,0.4,0.3l-0.3,0.9c-0.4,0-0.7-0.1-0.9-0.3c-0.2-0.2-0.4-0.4-0.5-0.8
			c-0.5,0.7-1.2,1.1-2.1,1.1c-0.7,0-1.3-0.2-1.7-0.6c-0.4-0.4-0.6-0.9-0.6-1.5c0-0.8,0.3-1.3,0.8-1.7c0.5-0.4,1.3-0.6,2.3-0.6h1.1
			v-0.5c0-0.5-0.1-0.9-0.4-1.1c-0.2-0.2-0.6-0.3-1.1-0.3c-0.5,0-1.2,0.1-1.9,0.4l-0.3-0.9c0.9-0.3,1.7-0.5,2.5-0.5
			c0.8,0,1.5,0.2,1.9,0.6c0.4,0.4,0.6,1,0.6,1.7v3.2C81.3,72.2,81.4,72.4,81.5,72.6z M80.1,71.7v-1.6h-0.9c-1.3,0-2,0.5-2,1.5
			c0,0.4,0.1,0.7,0.3,1c0.2,0.2,0.5,0.3,0.9,0.3C79.1,72.8,79.7,72.4,80.1,71.7z"/>
		<path style="fill:#3095B4;" d="M89.5,66.8c-0.3,0.1-0.6,0.1-0.9,0.2s-0.7,0-1.2,0c0.8,0.4,1.3,1,1.3,1.8c0,0.7-0.2,1.3-0.7,1.7
			c-0.5,0.4-1.1,0.7-2,0.7c-0.3,0-0.6,0-0.9-0.1c-0.1,0.1-0.2,0.2-0.3,0.3c-0.1,0.1-0.1,0.2-0.1,0.4c0,0.4,0.3,0.6,0.9,0.6h1.1
			c0.5,0,0.9,0.1,1.3,0.3c0.4,0.2,0.7,0.4,0.9,0.7s0.3,0.6,0.3,1c0,0.7-0.3,1.2-0.8,1.6c-0.6,0.4-1.4,0.6-2.5,0.6
			c-0.8,0-1.4-0.1-1.8-0.2c-0.4-0.2-0.8-0.4-0.9-0.7c-0.2-0.3-0.3-0.7-0.3-1.2h1.1c0,0.3,0.1,0.5,0.2,0.7c0.1,0.2,0.3,0.3,0.6,0.4
			s0.7,0.1,1.2,0.1c0.7,0,1.3-0.1,1.6-0.3s0.5-0.5,0.5-0.8c0-0.3-0.1-0.6-0.4-0.8s-0.6-0.3-1.1-0.3h-1.1c-0.6,0-1.1-0.1-1.4-0.4
			c-0.3-0.3-0.5-0.6-0.5-1c0-0.2,0.1-0.5,0.2-0.7c0.1-0.2,0.3-0.4,0.6-0.6c-0.4-0.2-0.7-0.5-0.9-0.8s-0.3-0.7-0.3-1.2
			c0-0.5,0.1-0.9,0.4-1.3c0.2-0.4,0.6-0.7,1-0.9c0.4-0.2,0.9-0.3,1.4-0.3c0.6,0,1,0,1.4-0.1c0.4,0,0.7-0.1,0.9-0.2s0.6-0.2,0.9-0.4
			L89.5,66.8z M84.8,67.6c-0.3,0.3-0.4,0.7-0.4,1.2c0,0.5,0.1,0.9,0.4,1.2c0.3,0.3,0.6,0.4,1.1,0.4c0.5,0,0.9-0.1,1.1-0.4
			c0.3-0.3,0.4-0.7,0.4-1.2c0-1.1-0.5-1.6-1.5-1.6C85.4,67.2,85,67.4,84.8,67.6z"/>
		<path style="fill:#3095B4;" d="M95.9,70.5h-4.5c0.1,0.8,0.3,1.4,0.6,1.7c0.3,0.4,0.8,0.6,1.3,0.6c0.3,0,0.7,0,0.9-0.1
			c0.3-0.1,0.6-0.3,0.9-0.5l0.5,0.7c-0.8,0.6-1.6,0.9-2.5,0.9c-1,0-1.8-0.3-2.3-1c-0.6-0.6-0.8-1.5-0.8-2.7c0-0.7,0.1-1.4,0.4-2
			c0.2-0.6,0.6-1,1-1.3c0.4-0.3,1-0.5,1.6-0.5c0.9,0,1.7,0.3,2.2,0.9c0.5,0.6,0.8,1.5,0.8,2.6C95.9,70,95.9,70.2,95.9,70.5z
			 M94.7,69.5c0-0.7-0.1-1.2-0.4-1.6c-0.3-0.4-0.7-0.6-1.3-0.6c-1,0-1.6,0.7-1.7,2.2L94.7,69.5L94.7,69.5z"/>
		<path style="fill:#3095B4;" d="M106.4,66.9c0.4,0.4,0.5,0.9,0.5,1.6v5.1h-1.2v-4.9c0-0.9-0.3-1.4-1-1.4c-0.4,0-0.6,0.1-0.9,0.3
			c-0.2,0.2-0.5,0.5-0.8,1v5h-1.2v-4.9c0-0.9-0.3-1.4-1-1.4c-0.4,0-0.7,0.1-0.9,0.3c-0.2,0.2-0.5,0.5-0.8,0.9v5h-1.2v-7.1H99l0.1,1
			c0.5-0.8,1.2-1.2,2-1.2c0.4,0,0.8,0.1,1.1,0.3c0.3,0.2,0.5,0.5,0.7,0.9c0.3-0.4,0.6-0.7,0.9-0.9c0.3-0.2,0.7-0.3,1.2-0.3
			C105.6,66.3,106.1,66.5,106.4,66.9z"/>
		<path style="fill:#3095B4;" d="M114.8,70.5h-4.5c0.1,0.8,0.3,1.4,0.6,1.7c0.3,0.4,0.8,0.6,1.3,0.6c0.3,0,0.7,0,0.9-0.1
			c0.3-0.1,0.6-0.3,0.9-0.5l0.5,0.7c-0.8,0.6-1.6,0.9-2.5,0.9c-1,0-1.8-0.3-2.3-1c-0.6-0.6-0.8-1.5-0.8-2.7c0-0.7,0.1-1.4,0.4-2
			c0.2-0.6,0.6-1,1-1.3c0.4-0.3,1-0.5,1.6-0.5c0.9,0,1.7,0.3,2.2,0.9c0.5,0.6,0.8,1.5,0.8,2.6C114.8,70,114.8,70.2,114.8,70.5z
			 M113.6,69.5c0-0.7-0.1-1.2-0.4-1.6c-0.3-0.4-0.7-0.6-1.3-0.6c-1,0-1.6,0.7-1.7,2.2L113.6,69.5L113.6,69.5z"/>
		<path style="fill:#3095B4;" d="M121.6,66.9c0.4,0.4,0.5,0.9,0.5,1.6v5.1h-1.2v-4.9c0-0.5-0.1-0.9-0.3-1.1c-0.2-0.2-0.5-0.3-0.8-0.3
			c-0.4,0-0.7,0.1-1,0.3c-0.3,0.2-0.6,0.5-0.8,0.9v5h-1.2v-7.1h1.1l0.1,1.1c0.3-0.4,0.6-0.7,0.9-0.9c0.4-0.2,0.8-0.3,1.2-0.3
			C120.8,66.3,121.3,66.5,121.6,66.9z"/>
		<path style="fill:#3095B4;" d="M128.3,73.3c-0.5,0.3-1,0.5-1.6,0.5c-0.6,0-1.1-0.2-1.4-0.5c-0.3-0.3-0.5-0.8-0.5-1.5v-4.3h-1.2v-1
			h1.2v-1.6l1.2-0.1v1.8h1.7l-0.1,1H126v4.2c0,0.4,0.1,0.6,0.2,0.8s0.3,0.2,0.7,0.2c0.3,0,0.6-0.1,0.9-0.3L128.3,73.3z"/>
	</g>
</svg>
